<svg xmlns="http://www.w3.org/2000/svg" fill-rule="evenodd" stroke-linejoin="round" stroke-miterlimit="2" clip-rule="evenodd" viewBox="0 0 6000 6000" id="financial-planning"><path fill="#eee" d="M1407.27 1062.11c-9.61-4.74-17.82-12.13-26-18.93-18.53-15.38-35.8-32.27-46.23-54.337-5.32-11.241-11.99-31.819-2.2-42.703 7.55-8.396 20.87-2.355 29.38.986 3.36 1.32 11.13 5.299 13.82.798 3.45-5.754.49-15.793-.42-21.825-2.72-18.083-2.44-42.825 20.36-46.843 16.96-2.989 34.11 8.118 47.94 16.339 24.75 14.714 53.72 34.417 84.09 28.892 25.5-4.639 41.74-26.739 57.69-45.083 10.69-12.308 24.01-26.214 41.79-24.869 43.4 3.282 30.74 72.259 64.99 86.55 21.3 8.884 47.44 1.332 69.84 4.429 10.7 1.478 22.44 4.716 28.76 14.211 13.16 19.753-5.2 45.795 8.32 64.485 10.68 14.77 50.03 11.92 41.12 36.86l-433.25 1.04Z" transform="matrix(8.34018 0 0 9.95622 -10452.152 -6253.499)"></path><path fill="#eee" d="m1819.6 810.164 3 15.378 22.23-44.159-50.51 11.616 11.43 4.836-28.89 19.732-98.11-77.577a9.008 9.008 0 0 0-12.7 1.549l-35.45 45.796-24.14-6.106a9.014 9.014 0 0 0-9.06 2.885l-39 45.739c-3.22 3.778-2.77 9.462 1.01 12.683 3.78 3.222 9.47 2.77 12.69-1.008l35.37-41.483 24.42 6.18a9.019 9.019 0 0 0 9.33-3.215l33.5-43.268 96.17 76.044a9.003 9.003 0 0 0 10.66.372l38.05-25.994Z" transform="rotate(-17.071 -6304.124 40830.215) scale(8.29167)"></path><g transform="matrix(9.45161 1.57776 -4.07987 10.10597 -9061.543 -9099.685)"><path fill="#4b7686" d="m1797.83 845.251-12.26-10.001s-52.66 41.597-52.66 74.922c0 35.83 29.09 64.92 64.92 64.92 35.85 0 64.92-29.066 64.92-64.92l-12.29-10.001-13.95 10.001c0 21.363-17.32 38.681-38.68 38.681-21.35 0-38.68-17.333-38.68-38.681 0-6.511 1.61-12.647 4.45-18.03 6.48-12.281 19.38-20.652 34.23-20.652v-26.239Z"></path><clipPath id="a"><path d="m1797.83 845.251-12.26-10.001s-52.66 41.597-52.66 74.922c0 35.83 29.09 64.92 64.92 64.92 35.85 0 64.92-29.066 64.92-64.92l-12.29-10.001-13.95 10.001c0 21.363-17.32 38.681-38.68 38.681-21.35 0-38.68-17.333-38.68-38.681 0-6.511 1.61-12.647 4.45-18.03 6.48-12.281 19.38-20.652 34.23-20.652v-26.239Z"></path></clipPath><g clip-path="url(#a)"><path fill="#85b1c2" d="m885.616 981.629 18.561 71.871 14.98 16.48 79.083-74.055 6.46-52.121-42.984-21.736-76.1 59.561Z" transform="matrix(.74857 -.11687 .3022 .7001 757.748 289.625)"></path></g></g><g transform="matrix(9.45161 1.57776 -4.07987 10.10597 -9136.932 -9220.148)"><path fill="#6993a4" d="M1797.83 845.251c-35.85 0-64.92 29.066-64.92 64.921 0 35.83 29.09 64.92 64.92 64.92 35.85 0 64.92-29.066 64.92-64.92h-26.24c0 21.363-17.32 38.681-38.68 38.681-21.35 0-38.68-17.333-38.68-38.681 0-21.363 17.32-38.682 38.68-38.682v-26.239Z"></path><clipPath id="b"><path d="M1797.83 845.251c-35.85 0-64.92 29.066-64.92 64.921 0 35.83 29.09 64.92 64.92 64.92 35.85 0 64.92-29.066 64.92-64.92h-26.24c0 21.363-17.32 38.681-38.68 38.681-21.35 0-38.68-17.333-38.68-38.681 0-21.363 17.32-38.682 38.68-38.682v-26.239Z"></path></clipPath><g clip-path="url(#b)"><path fill="#a6d2e4" d="m846.865 1069.98 61.966-17.17 81.435-63.757 14.434-45.249-83.743-52.282-74.092 178.458Z" transform="matrix(.74857 -.11687 .3022 .7001 770.041 299.625)"></path></g></g><path fill="#001320" d="M1860.47 893.107c-6.56-24.083-26.35-42.271-50.9-46.786l-22.12 43.532 8.53 7.549c3.98.733 10.95 6.094 12.01 10.001l52.48-14.296Z" transform="matrix(9.45161 1.57776 -4.07987 10.10597 -8948.406 -9158.812)"></path><path fill="#023341" d="M1860.47 893.107c-6.56-24.083-26.35-42.271-50.9-46.786l-9.83 53.491c3.98.733 7.19 3.684 8.25 7.591l52.48-14.296Z" transform="matrix(9.45161 1.57776 -4.07987 10.10597 -9023.796 -9279.27)"></path><g transform="translate(-8041.8 -3003.722) scale(6.90134)"><path fill="#6993a4" d="M1826.95 1063.05c.53-6.86 2.82-13.69 4.99-20.17 5.79-17.25 14.13-32.74 28.91-43.864 7.18-5.402 16.92-10.461 26.23-9.185 4.41.603 9.33 3.149 9.11 8.246-.38 9.113-11.31 16.233-17.99 20.663-16.32 10.83-46.62 22.56-51.25 44.31Z"></path><clipPath id="c"><path d="M1826.95 1063.05c.53-6.86 2.82-13.69 4.99-20.17 5.79-17.25 14.13-32.74 28.91-43.864 7.18-5.402 16.92-10.461 26.23-9.185 4.41.603 9.33 3.149 9.11 8.246-.38 9.113-11.31 16.233-17.99 20.663-16.32 10.83-46.62 22.56-51.25 44.31Z"></path></clipPath><g clip-path="url(#c)"><path fill="#477282" d="M1855.6 999.788c1.04 2.592.6 5.662.06 8.312-.48 2.39-1.15 4.82-2.38 6.94-4.46 7.66-13.84 10.88-22.14 12.14-3.75.57-9.76.95-12.7-2.13-2.02-2.12-.56-4.16-.44-6.54.03-.63-.47-.78-1-.62-2.87.84-5.33 4.93-6.87 7.2-4.62 6.85-7.57 15.14-8.79 23.29-.43 2.87-1.07 6.88.78 9.42 2.32 3.19 7.6.75 10.29-.51.78-.37 1.56-.76 2.33-1.16.89-.46 1.78-.94 2.65-1.42 1.37-.75 2.71-1.55 4.04-2.35 8.13-4.86 46.98-25.05 52.1-34.6 5.34-9.97-8.7-14.59-17.93-17.972Z" transform="translate(-337.245 -216.062) scale(1.20146)"></path></g></g><g transform="matrix(-6.90134 0 0 6.90134 17140.369 -3003.722)"><path fill="#6993a4" d="M1826.95 1063.05c.53-6.86 2.82-13.69 4.99-20.17 5.79-17.25 14.13-32.74 28.91-43.864 7.18-5.402 16.92-10.461 26.23-9.185 4.41.603 9.33 3.149 9.11 8.246-.38 9.113-11.31 16.233-17.99 20.663-16.32 10.83-46.62 22.56-51.25 44.31Z"></path><clipPath id="d"><path d="M1826.95 1063.05c.53-6.86 2.82-13.69 4.99-20.17 5.79-17.25 14.13-32.74 28.91-43.864 7.18-5.402 16.92-10.461 26.23-9.185 4.41.603 9.33 3.149 9.11 8.246-.38 9.113-11.31 16.233-17.99 20.663-16.32 10.83-46.62 22.56-51.25 44.31Z"></path></clipPath><g clip-path="url(#d)"><path fill="#477282" d="M1855.6 999.788c1.04 2.592.6 5.662.06 8.312-.48 2.39-1.15 4.82-2.38 6.94-4.46 7.66-13.84 10.88-22.14 12.14-3.75.57-9.76.95-12.7-2.13-2.02-2.12-.56-4.16-.44-6.54.03-.63-.47-.78-1-.62-2.87.84-5.33 4.93-6.87 7.2-4.62 6.85-7.57 15.14-8.79 23.29-.43 2.87-1.07 6.88.78 9.42 2.32 3.19 7.6.75 10.29-.51.78-.37 1.56-.76 2.33-1.16.89-.46 1.78-.94 2.65-1.42 1.37-.75 2.71-1.55 4.04-2.35 8.13-4.86 46.98-25.05 52.1-34.6 5.34-9.97-8.7-14.59-17.93-17.972Z" transform="translate(-337.245 -216.062) scale(1.20146)"></path></g></g><g transform="matrix(9.15508 0 0 8.90725 -12177.773 -5158.652)"><path fill="#6993a4" d="M1830.61 1062.95c-.26-10.01-.87-20.78.25-31.11 1.07-9.78 3.69-19.17 9.96-26.97 6.79-8.459 16.47-13.765 25.14-19.935 9.65-6.873 18.1-14.74 21.35-27.711.99-3.91 1.36-7.975.98-11.995-.41-4.286-1.79-8.419-3.64-12.283-.89-1.862-3.09-2.627-4.9-1.709-1.81.918-2.56 3.175-1.66 5.036 1.46 3.054 2.59 6.308 2.92 9.696.3 3.143-.01 6.319-.78 9.376-2.78 11.05-10.21 17.553-18.44 23.408-9.21 6.558-19.4 12.339-26.62 21.327-14.03 17.48-12.43 41.85-11.88 63.07.06 2.08 1.74 3.72 3.76 3.66 2.02-.05 3.61-1.78 3.56-3.86Z"></path><clipPath id="e"><path d="M1830.61 1062.95c-.26-10.01-.87-20.78.25-31.11 1.07-9.78 3.69-19.17 9.96-26.97 6.79-8.459 16.47-13.765 25.14-19.935 9.65-6.873 18.1-14.74 21.35-27.711.99-3.91 1.36-7.975.98-11.995-.41-4.286-1.79-8.419-3.64-12.283-.89-1.862-3.09-2.627-4.9-1.709-1.81.918-2.56 3.175-1.66 5.036 1.46 3.054 2.59 6.308 2.92 9.696.3 3.143-.01 6.319-.78 9.376-2.78 11.05-10.21 17.553-18.44 23.408-9.21 6.558-19.4 12.339-26.62 21.327-14.03 17.48-12.43 41.85-11.88 63.07.06 2.08 1.74 3.72 3.76 3.66 2.02-.05 3.61-1.78 3.56-3.86Z"></path></clipPath><g clip-path="url(#e)"><path fill="#477282" d="M1847.02 924.905c5.25 5.935 2.64 36.785 5.98 43.864.79 1.693 1.42 7.919 3.45 8.598 1.57.522 3.33-1.597 4.19-2.574 3.06-3.452 5.16-7.904 7.03-12.068 4.85-10.735 8.71-23.987 7.13-35.85-.26-2.003-.72-4.053-1.52-5.914-3.52-8.121-12.71-5.808-18.62-2.034-2.73 1.749-5.23 3.807-7.64 5.978Z" transform="matrix(.89406 -.14872 .1447 .91894 83.332 350.673)"></path></g></g><g transform="translate(-15574.922 -7088.637) scale(10.97237)"><circle cx="1873.49" cy="922.267" r="28.654" fill="#f29f05"></circle><clipPath id="f"><circle cx="1873.49" cy="922.267" r="28.654"></circle></clipPath><g clip-path="url(#f)"><path fill="#d98a00" d="M1078.06 1036.13c3.78 18.66 2.57 41.21-14.47 53.1a42.774 42.774 0 0 1-10.56 5.33c-9.42 3.22-20.72 3.17-29.76-1.21-2.66-1.28-5.19-2.91-7.34-4.94-1.35-1.27-2.69-3.39-4.37-4.22-1.67-.83-2.13 1.29-2.03 2.49.36 4.52 3.42 9 6.17 12.4 10.58 13.09 28.05 16.93 43.83 11.83 27.21-8.79 41.45-49.94 18.53-74.78Z" transform="translate(1082.17 116.823) scale(.75569)"></path></g></g><path fill="#f29f05" d="m1886.04 843.909 1.66 10.676 10.68 1.659-10.68 1.658-1.66 10.676-1.66-10.676-10.67-1.658 10.67-1.659 1.66-10.676Z" transform="translate(-8920.047 -3752.16) scale(7.486)"></path><path fill="#f29f05" d="m1886.04 843.909 1.66 10.676 10.68 1.659-10.68 1.658-1.66 10.676-1.66-10.676-10.67-1.658 10.67-1.659 1.66-10.676Z" transform="translate(-2965.38 -1197.772) scale(4.3949)"></path><path fill="#f29f05" d="m1886.04 843.909 1.66 10.676 10.68 1.659-10.68 1.658-1.66 10.676-1.66-10.676-10.67-1.658 10.67-1.659 1.66-10.676Z" transform="translate(-2965.38 -993.861) scale(4.3949)"></path><path fill="#fff" fill-rule="nonzero" d="M1754.55 918.17c0-2.929-.81-5.261-2.44-6.993-1.62-1.733-4.38-3.332-8.28-4.797-3.89-1.465-7.25-2.921-10.07-4.368-2.83-1.447-5.25-3.108-7.27-4.984a20.055 20.055 0 0 1-4.71-6.619c-1.13-2.536-1.69-5.555-1.69-9.057 0-6.038 1.93-10.986 5.79-14.845 3.86-3.859 8.98-6.109 15.38-6.753v-11.468h8.57v11.629c6.33.893 11.28 3.528 14.85 7.905 3.57 4.377 5.36 10.049 5.36 17.016h-15.49c0-4.288-.89-7.494-2.65-9.62-1.77-2.126-4.14-3.189-7.1-3.189-2.93 0-5.2.831-6.81 2.492-1.61 1.662-2.41 3.957-2.41 6.887 0 2.715.78 4.895 2.36 6.538 1.57 1.644 4.49 3.323 8.76 5.038 4.27 1.715 7.78 3.332 10.53 4.85 2.75 1.518 5.07 3.233 6.97 5.145a19.971 19.971 0 0 1 4.34 6.538c1 2.448 1.5 5.297 1.5 8.548 0 6.074-1.9 11.005-5.68 14.792-3.79 3.787-9.01 6.02-15.65 6.699v10.665h-8.52v-10.612c-7.33-.786-13-3.385-17.02-7.797-4.02-4.413-6.03-10.281-6.03-17.605h15.49c0 4.251 1.01 7.511 3.03 9.78 2.02 2.269 4.92 3.403 8.71 3.403 3.14 0 5.62-.83 7.45-2.492 1.82-1.661 2.73-3.903 2.73-6.726Z" transform="rotate(-30 4953.09 6887.336) scale(3.96085)"></path><g transform="rotate(-23.548 -2200.715 24529.195) scale(7.3604)"><path fill="#fad8ba" d="M1428.39 828.924s-36.45 14.345-51.29 64.632c-9.28 31.466-26.03 135.414 2.46 136.464 28.49 1.05 168.48-130.181 168.48-130.181s9.66 3.866 14.54-9.472c2.67-7.28-4-13.218-4-13.218s11.92-8.624 15.48-11.117c8.46-5.923-2.47-8.384-6.61-12.666-.59-.616-16.33 2.947-26.25 14.824-4.18 5.003-7.55 11.695-7.55 11.695l-100.75 65.424-4.51-116.385Z"></path><clipPath id="g"><path d="M1428.39 828.924s-36.45 14.345-51.29 64.632c-9.28 31.466-26.03 135.414 2.46 136.464 28.49 1.05 168.48-130.181 168.48-130.181s9.66 3.866 14.54-9.472c2.67-7.28-4-13.218-4-13.218s11.92-8.624 15.48-11.117c8.46-5.923-2.47-8.384-6.61-12.666-.59-.616-16.33 2.947-26.25 14.824-4.18 5.003-7.55 11.695-7.55 11.695l-100.75 65.424-4.51-116.385Z"></path></clipPath><g clip-path="url(#g)"><path fill="#d23f00" d="M1341.89 970.527c6.81-8.343 22.76-13.59 32.86-9.762 6.83 2.589 13.96 9.385 21.65 9.08 4.2-.166 6.75-4.012 8.26-7.483 2.55-5.896 4.69-11.972 9.45-16.52 2.92-2.782 6.21-4.588 10.24-5.108 4.55-.588 10.45.253 13.09-4.407 4.08-7.201 4.93-17.255 5.95-25.264 2.72-21.482 4.22-45.857-4-66.352-1.51-3.755-3.4-7.466-5.94-10.64-15.18-19.003-38.13-3.959-49.76 10.515-6.32 7.871-11.48 16.699-15.69 25.856-6.55 14.223-23.27 84.711-26.11 100.085Z"></path><path fill="#d7b699" d="M1643.42 844.001c-1.63 2.908-5.83 5.17-8.21 7.396a156.887 156.887 0 0 0-13.92 14.821c-10.84 13.189-17.97 28.524-27.09 42.821-3.54 5.554-7.52 10.861-10.78 16.59-1.5 2.649-3.33 5.724-3.4 8.861-.23 9.782 14.32 3.588 18.21 1.337a55.02 55.02 0 0 0 3.13-1.978c1.73-1.168 3.42-2.399 5.08-3.655 18.9-14.222 27.26-64.874 36.98-86.193Z" transform="rotate(23.548 1868.526 251.85) scale(1.12652)"></path></g></g><path fill="#023341" d="M1810.13 818.477c0-5.419-9.48-17.359-15.8-17.359-19.44 0-54.33 7.546-73.77 7.546-6.32 0-11.44 4.394-11.44 9.813 0 21.484-7.11 67.608-7.11 89.092 0 5.419 12.23 14.677 18.55 14.677h78.13c6.32 0 11.44-4.394 11.44-9.813v-93.956Z" transform="matrix(4.62638 -.91828 -1.06684 5.81893 -3884.571 -960.89)"></path><path fill="#6993a4" d="M1810.13 818.477c0-5.419-5.12-9.813-11.44-9.813h-78.13c-6.32 0-11.44 4.394-11.44 9.813v93.956c0 5.419 5.12 9.813 11.44 9.813h78.13c6.32 0 11.44-4.394 11.44-9.813v-93.956Z" transform="matrix(4.62638 -.91828 -1.06684 5.81893 -3914.216 -1002.981)"></path><path fill="#fff" d="M1810.13 849.207c0-22.391-5.43-40.543-12.14-40.543h-76.73c-6.7 0-12.14 18.152-12.14 40.543v32.497c0 22.39 5.44 40.542 12.14 40.542h76.73c6.71 0 12.14-18.152 12.14-40.542v-32.497Z" transform="matrix(3.87214 -.76857 -.2294 1.25119 -3273.858 2479.744)"></path><path fill="#fff" d="M1734.96 862.572c0-2.915-2.9-5.278-6.47-5.278h-4.4c-3.57 0-6.47 2.363-6.47 5.278v6.786c0 2.914 2.9 5.277 6.47 5.277h4.4c3.57 0 6.47-2.363 6.47-5.277v-6.786Z" transform="matrix(4.39739 -.87283 -1.06684 5.81893 -3519.208 -1106.574)"></path><path fill="#fff" d="M1734.96 862.572c0-2.915-2.9-5.278-6.47-5.278h-4.4c-3.57 0-6.47 2.363-6.47 5.278v6.786c0 2.914 2.9 5.277 6.47 5.277h4.4c3.57 0 6.47-2.363 6.47-5.277v-6.786Z" transform="matrix(4.39739 -.87283 -1.06684 5.81893 -3544.136 -970.603)"></path><path fill="#fff" d="M1734.96 862.572c0-2.915-2.9-5.278-6.47-5.278h-4.4c-3.57 0-6.47 2.363-6.47 5.278v6.786c0 2.914 2.9 5.277 6.47 5.277h4.4c3.57 0 6.47-2.363 6.47-5.277v-6.786Z" transform="matrix(4.39739 -.87283 -1.06684 5.81893 -3569.065 -834.632)"></path><path fill="#fff" d="M1734.96 862.572c0-2.915-2.9-5.278-6.47-5.278h-4.4c-3.57 0-6.47 2.363-6.47 5.278v6.786c0 2.914 2.9 5.277 6.47 5.277h4.4c3.57 0 6.47-2.363 6.47-5.277v-6.786Z" transform="matrix(4.39739 -.87283 -1.06684 5.81893 -3402.932 -1129.653)"></path><path fill="#fff" d="M1734.96 862.572c0-2.915-2.9-5.278-6.47-5.278h-4.4c-3.57 0-6.47 2.363-6.47 5.278v6.786c0 2.914 2.9 5.277 6.47 5.277h4.4c3.57 0 6.47-2.363 6.47-5.277v-6.786Z" transform="matrix(4.39739 -.87283 -1.06684 5.81893 -3427.86 -993.682)"></path><path fill="#fff" d="M1734.96 862.572c0-2.915-2.9-5.278-6.47-5.278h-4.4c-3.57 0-6.47 2.363-6.47 5.278v6.786c0 2.914 2.9 5.277 6.47 5.277h4.4c3.57 0 6.47-2.363 6.47-5.277v-6.786Z" transform="matrix(4.39739 -.87283 -1.06684 5.81893 -3452.794 -857.71)"></path><path fill="#fff" d="M1734.96 862.572c0-2.915-2.9-5.278-6.47-5.278h-4.4c-3.57 0-6.47 2.363-6.47 5.278v6.786c0 2.914 2.9 5.277 6.47 5.277h4.4c3.57 0 6.47-2.363 6.47-5.277v-6.786Z" transform="matrix(4.39739 -.87283 -1.06684 5.81893 -3286.661 -1152.732)"></path><path fill="#fff" d="M1734.96 862.572c0-2.915-2.9-5.278-6.47-5.278h-4.4c-3.57 0-6.47 2.363-6.47 5.278v6.786c0 2.914 2.9 5.277 6.47 5.277h4.4c3.57 0 6.47-2.363 6.47-5.277v-6.786Z" transform="matrix(4.39739 -.87283 -1.06684 5.81893 -3191.036 -1171.712)"></path><path fill="#fff" d="M1734.96 862.572c0-2.915-2.9-5.278-6.47-5.278h-4.4c-3.57 0-6.47 2.363-6.47 5.278v6.786c0 2.914 2.9 5.277 6.47 5.277h4.4c3.57 0 6.47-2.363 6.47-5.277v-6.786Z" transform="matrix(4.39739 -.87283 -1.06684 5.81893 -3311.59 -1016.76)"></path><path fill="#fff" d="M1734.96 862.572c0-2.915-2.9-5.278-6.47-5.278h-4.4c-3.57 0-6.47 2.363-6.47 5.278v6.786c0 2.914 2.9 5.277 6.47 5.277h4.4c3.57 0 6.47-2.363 6.47-5.277v-6.786Z" transform="matrix(4.39739 -.87283 -1.06684 5.81893 -3336.518 -880.79)"></path><path fill="#fff" d="M1734.96 859.542c0-1.241-3.59-2.248-8.03-2.248h-1.28c-4.44 0-8.03 1.007-8.03 2.248v12.845c0 1.242 3.59 2.248 8.03 2.248h1.28c4.44 0 8.03-1.006 8.03-2.248v-12.845Z" transform="matrix(3.5472 -.70407 -2.50444 13.66012 -515.863 -8049.285)"></path><g transform="translate(-8933.773 -3524.992) scale(7.3604)"><path fill="#fad8ba" d="M1644.31 806.288c-6.13 1.552-22.4 9.326-26.87 12.531-1.82 1.301-2.13 6.246.05 6.697 3.48.717 15.51-.939 20.82-2.396 16-4.395 12.75-18.542 6-16.832Z"></path><clipPath id="h"><path d="M1644.31 806.288c-6.13 1.552-22.4 9.326-26.87 12.531-1.82 1.301-2.13 6.246.05 6.697 3.48.717 15.51-.939 20.82-2.396 16-4.395 12.75-18.542 6-16.832Z"></path></clipPath><g clip-path="url(#h)"><path fill="#d7b699" d="M1637.44 829.311c.47 3.322-1.1 7.336-2.9 10.136-3.2 4.974-13.56 8.707-13.56 8.707s4.64 2.02 7 1.389c7.23-1.933 21.13-13.702 9.46-20.232Z" transform="translate(-197.536 -130.504) scale(1.12652)"></path></g></g><path fill="#f25c05" d="M1498.4 827.248c-16.69-19.599-63.56-12.834-76.67 9.324-19.13 32.329-38.11 184.648-38.11 184.648l144.83-59.369s-12.26-113.723-30.05-134.603Z" transform="translate(-8933.773 -3524.992) scale(7.3604)"></path><path fill="#d23f00" d="M1416.83 882.026c2.65 11.468 18.63-5.579 23.81 4.889 7.07 14.261 5.81 44.071 18.15 54.523 7.47 6.328 20.24.488 30.03 1.26 3.13.246 1.14 9.349 1.78 13.688.63 4.27-4.52 7.73-7.51 9.705-9.78 6.459-21.4 9.992-33.15 8.562-29.73-3.618-20.49-66.824-33.11-92.627Z" transform="translate(-10387.718 -4485.549) scale(8.29167)"></path><g transform="matrix(8.11069 0 0 8.29167 -9786.75 -4521.334)"><path fill="#d68700" d="M1733.45 1026.09c-34.11-8.11-100.29 19.31-122.1 24.11-16.21 3.58-3.83 16.93-3.83 16.93h125.49s15.73-37.41.44-41.04Z"></path><clipPath id="i"><path d="M1733.45 1026.09c-34.11-8.11-100.29 19.31-122.1 24.11-16.21 3.58-3.83 16.93-3.83 16.93h125.49s15.73-37.41.44-41.04Z"></path></clipPath><g clip-path="url(#i)"><path fill="#975300" d="M1621.93 1039.15c2.89 11.64 32.07 31.12 95.26 6.48 10.04-3.92 16.12-11.33 22.92-19.76 4.62-5.75 3.91 17.21 2.09 21.98-4.93 12.86-17.5 20.53-29.62 25.63-25.95 10.93-58.51 12.62-85.85 6.58-12.05-2.67-25.72-7.1-34.14-16.69-11.84-13.5-4.2-30.57 8.03-40.65 20.87-17.2-4.96 16.23 21.31 16.43Z" transform="matrix(1.02231 0 0 1 -40.206 7.074)"></path></g></g><path fill="#03222f" d="M1707.6 1019.18s-109.68-116.924-157.19-126.009c-47.51-9.085-101.13 48.605-127.85 71.501-68.82 58.968-34.91 101.608 8.59 102.708 70.24 1.77 122.37-83.528 122.37-83.528l23.63 71.528c36.76 6.5 104.74-14.67 130.45-36.2Z" transform="translate(-8587.828 -3527.295) scale(7.3604)"></path><g transform="matrix(8.11069 0 0 8.29167 -10132.695 -4519.025)"><path fill="#f29f05" d="M1733.45 1026.09c-34.11-8.11-100.29 19.31-122.1 24.11-16.21 3.58-3.83 16.93-3.83 16.93h125.49s15.73-37.41.44-41.04Z"></path><clipPath id="j"><path d="M1733.45 1026.09c-34.11-8.11-100.29 19.31-122.1 24.11-16.21 3.58-3.83 16.93-3.83 16.93h125.49s15.73-37.41.44-41.04Z"></path></clipPath><g clip-path="url(#j)"><path fill="#b16800" d="M1621.93 1039.15c2.89 11.64 32.07 31.12 95.26 6.48 10.04-3.92 16.12-11.33 22.92-19.76 4.62-5.75 3.91 17.21 2.09 21.98-4.93 12.86-17.5 20.53-29.62 25.63-25.95 10.93-58.51 12.62-85.85 6.58-12.05-2.67-25.72-7.1-34.14-16.69-11.84-13.5-4.2-30.57 8.03-40.65 20.87-17.2-4.96 16.23 21.31 16.43Z" transform="matrix(1.02231 0 0 1 -31.443 4.037)"></path></g></g><g transform="translate(-8933.774 -3524.986) scale(7.3604)"><path fill="#023341" d="M1707.6 1019.18s-109.68-116.924-157.19-126.009c-47.51-9.085-101.13 48.605-127.85 71.501-68.82 58.968-34.91 101.608 8.59 102.708 70.24 1.77 122.37-83.528 122.37-83.528l23.63 71.528c36.76 6.5 104.74-14.67 130.45-36.2Z"></path><clipPath id="k"><path d="M1707.6 1019.18s-109.68-116.924-157.19-126.009c-47.51-9.085-101.13 48.605-127.85 71.501-68.82 58.968-34.91 101.608 8.59 102.708 70.24 1.77 122.37-83.528 122.37-83.528l23.63 71.528c36.76 6.5 104.74-14.67 130.45-36.2Z"></path></clipPath><g clip-path="url(#k)"><path fill="#03222f" d="M1375.84 1005.24c-4.29 12.68 76.52-48.588 73.46-35.431-4.25 18.251-6.42 56.201 21.23 56.031 3.37-.02 6.76-.59 9.99-1.57 21.5-6.54 44.66-20.91 59.22-38.046 4.85-5.705 8.7-12.14 11.09-19.255.92-2.737 1.57-5.542 2.27-8.34.04-.179.56-2.609 1-2.388 1.12.56.99 4.893 1.13 5.906.63 4.743 1.57 9.743 4.14 13.865 6.18 9.939 19.33 11.705 25.73 21.702 7.47 11.656 2.82 31.456 16.91 38.466 18.21 9.06 49.91-1.32 66.85-9.68 5.22-2.58 10.24-5.6 15.03-8.92 1.9-1.33 4.6-4.05 7.14-3.7 6.21.83 4.96 16.01 4.05 19.57-2.46 9.67-9.66 17.09-17.34 22.98-14.95 11.46-33.09 18.36-51.24 22.86-40.18 9.96-82.86 11.41-124.03 9.05-24.46-1.41-49.33-3.72-73-10.33-25.29-7.07-53.93-22.32-56.09-51.69-.52-7.12.72-14.21 2.46-21.08Z" transform="translate(-197.536 -130.504) scale(1.12652)"></path></g></g><g transform="translate(-8933.773 -3524.992) scale(7.3604)"><path fill="#fad8ba" d="M1428.39 828.924s-36.45 14.345-51.29 64.632c-9.28 31.466-27.83 134.384 2.46 136.464 30.3 2.08 179.3-123.963 179.3-123.963s10.05 3.076 16.36-9.648c2.96-5.956-1.76-15.474-1.76-15.474s7.86-6.192 11.42-8.685c8.46-5.923 1.89-12.635-3.37-9.83-4.37 2.337-25.43 17.336-25.43 17.336l-123.18 65.553-4.51-116.385Z"></path><clipPath id="l"><path d="M1428.39 828.924s-36.45 14.345-51.29 64.632c-9.28 31.466-27.83 134.384 2.46 136.464 30.3 2.08 179.3-123.963 179.3-123.963s10.05 3.076 16.36-9.648c2.96-5.956-1.76-15.474-1.76-15.474s7.86-6.192 11.42-8.685c8.46-5.923 1.89-12.635-3.37-9.83-4.37 2.337-25.43 17.336-25.43 17.336l-123.18 65.553-4.51-116.385Z"></path></clipPath><g clip-path="url(#l)"><path fill="#d7b699" d="M1422.05 939.609c-9.38 14.751-17.72 33.256-18.16 50.897-.25 9.814 2.94 20.094 14.51 18.524 13.01-1.77 25.52-10.135 36.37-16.97 26.98-16.999 52.71-36.471 78.06-55.805 6.93-5.288 13.85-10.619 19.93-16.9 1.12-1.154 4.55-6.563 6.38-6.572 1.33-.007 2.2 4.741 3.87 5.364 4.33 1.61 9.72-3.866 11.42-7.283.52-1.059 1.23-4 2.32-4.562 1.74-.895 2.62 3.38 2.76 4.209 3.22 20.057-10.29 41.201-22.18 55.81-21.32 26.211-50.48 47.189-80.73 61.859-15.13 7.35-31 13.55-47.61 16.56-24.36 4.4-54.75 1.89-65.61-24.21-1.72-4.13-2.74-8.55-3.15-13-.39-4.2 8.16-40.604 24.97-58.646 13.57-14.559 35.97-11.35 36.72-14.651M1579.44 880.094c1.79-.027 3.93 1.18 4.46 3 .26.876-.38 2.055-.8 2.772-1.74 2.968-5.28 4.697-8.07 6.513-1.98 1.288-3.81 2.784-5.79 4.073-.65.425-1.32.833-2 1.214-.23.13-.47.259-.7.389-.01.007-.35.196-.3.222.21.125 1.1-.207 1.34-.248 1.25-.21 2.49-.322 3.75-.38 1.44-.065 3.01-.003 4.4-.396 1.61-.455 3.05-1.423 4.39-2.393 2.29-1.659 4.44-3.593 6.11-5.891 1.85-2.557 3.62-6.176 1.44-9.07-.53-.701-7.52.707-8.23.195Z" transform="translate(-197.536 -130.504) scale(1.12652)"></path><path fill="#f25c05" d="M1341.89 970.527c6.81-8.343 22.76-13.59 32.86-9.762 6.83 2.589 13.96 9.385 21.65 9.08 4.2-.166 6.75-4.012 8.26-7.483 2.55-5.896 4.69-11.972 9.45-16.52 2.92-2.782 6.21-4.588 10.24-5.108 4.55-.588 10.45.253 13.09-4.407 4.08-7.201 4.93-17.255 5.95-25.264 2.72-21.482 4.22-45.857-4-66.352-1.51-3.755-3.4-7.466-5.94-10.64-15.18-19.003-38.13-3.959-49.76 10.515-6.32 7.871-11.48 16.699-15.69 25.856-6.55 14.223-23.27 84.711-26.11 100.085Z"></path></g></g><g transform="translate(-8933.773 -3524.992) scale(7.3604)"><path fill="#fad8ba" d="m1463.74 798.269-20.05.291c2.78 7.537 3.33 14.888.47 21.958 36.89 100.83 37.13 72.581 21.64-3.056-3.38-4.809-4.5-10.952-2.06-19.193Z"></path><clipPath id="m"><path d="m1463.74 798.269-20.05.291c2.78 7.537 3.33 14.888.47 21.958 36.89 100.83 37.13 72.581 21.64-3.056-3.38-4.809-4.5-10.952-2.06-19.193Z"></path></clipPath><g clip-path="url(#m)"><path fill="#d7b699" d="M1476.62 834.969c-3.25 4.715-8.83 6.632-14.35 5.478-3.18-.661-6.21-2.666-6.89-6.053-.69-3.45 1.44-6.188 4.33-7.834 4.51-2.564 12.83 5.114 16.91 8.409Z" transform="translate(-197.536 -130.504) scale(1.12652)"></path><path fill="#d7b699" d="M673.19 1001.35c1.085 8.31 2.281 16.74 1.722 25.13-.29 4.36 5.454 24.62-3.631 26.91-7.912 1.99-9.304 4.53-4.045 9.22 5.167 4.6 12.129 4.42 16.349-1.31 2.487-3.37 3.772-7.64 4.527-11.71 1.659-8.96-13.035-39.4-14.922-48.24Z" transform="translate(710.942 -310.013) scale(1.12652)"></path></g></g><path fill="#fad8ba" d="M1454.31 765.662c9.51 0 17.23 10.205 17.23 22.775 0 12.569-1.65 23.474-11.15 23.474-9.51 0-23.3-10.905-23.3-23.474 0-12.57 7.72-22.775 17.22-22.775Z" transform="translate(-6956.31 -2421.014) scale(6.00068)"></path><path fill="#03222f" d="M1437.28 776.51c-.04-.51-.06-1.026-.06-1.547 0-10.32 8.38-18.698 18.69-18.698 7.52 0 14.01 4.45 16.98 10.859a12.28 12.28 0 0 1-6.35 23.221 18.592 18.592 0 0 1-10.47 3.314c.04.511.06 1.027.06 1.548 0 10.32-8.37 18.698-18.69 18.698-10.32 0-18.7-8.378-18.7-18.698 0-10.267 8.29-18.612 18.54-18.697Z" transform="translate(-8933.773 -3524.992) scale(7.3604)"></path><path fill="#03222f" d="M1358.95 1066.85h457.854v8.317H1358.95z" transform="matrix(8.29167 0 0 2.9975 -9865.542 1121.187)"></path><path fill="#03222f" d="M1358.95 1066.85h457.854v8.317H1358.95z" transform="matrix(.8884 0 0 3.18558 -338.363 923.655)"></path></svg>